<?xml version="1.0" standalone="no"?>
<!DOCTYPE svg PUBLIC "-//W3C//DTD SVG 20010904//EN"
 "http://www.w3.org/TR/2001/REC-SVG-20010904/DTD/svg10.dtd">
<svg version="1.0" xmlns="http://www.w3.org/2000/svg"
 width="1500.000000pt" height="615.000000pt" viewBox="0 0 1500.000000 615.000000"
 preserveAspectRatio="xMidYMid meet">

<g transform="translate(0.000000,615.000000) scale(0.100000,-0.100000)"
fill="#000000" stroke="none">
<path d="M3771 5031 c-35 -81 -32 -86 47 -86 98 0 119 -8 131 -51 6 -23 6 -45
0 -61 -21 -56 -15 -63 59 -63 l69 0 12 -42 c33 -111 124 -218 226 -264 64 -29
79 -27 103 17 9 18 29 46 44 64 25 29 32 32 75 28 46 -4 85 9 71 23 -4 3 -22
9 -40 13 -29 6 -33 11 -36 42 l-3 36 52 9 c68 12 78 34 15 34 -25 0 -46 5 -46
10 0 6 -23 10 -51 10 -27 0 -82 7 -122 16 -84 19 -124 38 -62 29 22 -3 74 -7
115 -11 l75 -5 -40 19 c-35 16 -77 52 -62 52 3 0 24 -9 48 -20 24 -11 58 -19
74 -19 30 0 30 1 -10 18 -44 20 -88 62 -50 47 55 -21 112 -28 131 -18 17 10
16 11 -11 12 -39 0 -83 28 -143 90 -71 74 -103 68 -151 -27 -27 -54 -78 -113
-98 -113 -12 0 -9 7 9 25 48 48 42 133 -10 154 -66 26 -80 25 -117 -10 -19
-18 -35 -41 -35 -51 0 -24 -23 -23 -45 2 -10 11 -25 20 -33 20 -22 0 -108 57
-136 91 -14 16 -27 29 -29 29 -3 0 -14 -22 -26 -49z m261 -137 c7 -8 21 -24
31 -35 9 -10 17 -21 17 -24 0 -9 -35 8 -72 35 -21 15 -35 30 -31 33 12 12 42
7 55 -9z"/>
<path d="M870 4930 l0 -40 53 0 c211 -1 410 -119 492 -292 69 -147 65 -36 65
-1663 l0 -1470 -24 -66 c-29 -84 -85 -168 -145 -220 -91 -78 -258 -139 -385
-139 -56 0 -56 0 -56 -30 l0 -30 798 0 797 0 189 168 189 167 -239 5 -239 5
-53 29 c-74 41 -144 119 -170 189 -22 57 -22 67 -22 687 l0 630 156 0 156 0
-5 23 c-3 12 -22 108 -41 212 -20 105 -41 214 -47 243 l-10 52 -105 0 -104 0
0 159 0 158 -40 27 c-55 36 -80 80 -80 139 0 66 24 112 76 148 l44 30 0 289 0
290 68 0 c37 -1 180 -5 317 -10 275 -10 395 -26 522 -71 82 -29 83 -29 133
-13 131 43 284 -39 322 -171 7 -22 23 -57 36 -77 52 -80 35 -188 -38 -250 -34
-30 -39 -40 -49 -105 -35 -227 -163 -377 -385 -454 -44 -16 -82 -32 -84 -38
-3 -9 107 -591 115 -603 2 -5 12 -8 22 -8 9 0 53 -9 97 -21 251 -66 427 -194
514 -374 37 -77 70 -195 70 -249 0 -15 2 -26 5 -26 3 0 127 108 276 241 l269
240 -32 46 c-114 162 -323 308 -559 391 -92 32 -261 72 -307 72 -57 0 -40 14
56 45 259 84 435 230 543 450 66 135 92 247 91 395 0 189 -36 334 -117 472
-135 231 -397 388 -740 443 -75 13 -278 15 -1242 15 l-1153 0 0 -40z"/>
<path d="M3193 4429 c-18 -5 -35 -14 -38 -19 -3 -5 -33 -7 -68 -4 -80 7 -117
-14 -142 -80 -15 -39 -23 -47 -51 -52 -97 -18 -116 -133 -29 -170 48 -20 461
-20 508 -1 44 19 61 42 61 84 0 26 -7 42 -27 59 -17 15 -27 33 -27 51 0 88
-99 158 -187 132z"/>
<path d="M5425 4048 l0 -103 -35 0 -35 0 -3 98 c-3 96 -3 97 -27 97 l-25 0 0
-265 0 -265 25 0 25 0 0 145 0 145 40 0 40 0 0 -160 0 -160 25 0 25 0 0 285 0
285 -27 0 -28 0 0 -102z"/>
<path d="M5770 4130 c0 -18 7 -20 85 -20 78 0 85 2 85 20 0 18 -7 20 -85 20
-78 0 -85 -2 -85 -20z"/>
<path d="M6082 3943 c3 -207 3 -208 26 -211 22 -3 22 -1 22 97 l0 101 40 0
c36 0 40 3 40 25 0 23 -4 25 -40 25 l-40 0 0 85 c0 84 0 85 -25 85 l-25 0 2
-207z"/>
<path d="M6784 4104 c3 -26 6 -154 6 -285 0 -232 1 -239 20 -239 20 0 20 7 20
285 l0 285 -26 0 c-26 0 -27 -1 -20 -46z"/>
<path d="M8800 3980 l0 -170 25 0 c25 0 25 1 25 85 l0 85 40 0 c33 0 40 3 40
20 0 17 -7 20 -40 20 l-40 0 0 65 c0 63 -1 65 -25 65 l-25 0 0 -170z"/>
<path d="M10180 3865 l0 -285 25 0 25 0 0 285 0 285 -25 0 -25 0 0 -285z"/>
<path d="M6678 4085 l4 -55 -46 0 c-36 0 -46 4 -46 16 0 9 -15 31 -34 50 -26
26 -43 34 -69 34 -45 0 -91 -42 -106 -96 -14 -50 -14 -178 0 -228 32 -116 156
-131 204 -26 17 37 21 40 57 40 l38 0 0 -105 0 -105 25 0 25 0 0 265 0 265
-27 0 c-28 0 -28 -1 -25 -55z m-144 -28 c18 -25 21 -42 21 -137 0 -95 -3 -112
-21 -137 -12 -15 -30 -29 -40 -31 -51 -7 -91 100 -78 208 14 118 69 163 118
97z m146 -137 l0 -60 -35 0 -35 0 0 60 0 60 35 0 35 0 0 -60z"/>
<path d="M7270 4108 c0 -67 -52 -119 -152 -156 -52 -18 -56 -23 -33 -42 28
-23 145 33 197 95 l17 20 16 -22 c22 -31 92 -77 138 -92 30 -10 41 -10 52 -1
23 19 19 24 -37 44 -74 26 -138 89 -145 144 -5 36 -9 42 -29 42 -20 0 -24 -5
-24 -32z"/>
<path d="M9870 4120 c0 -18 7 -20 80 -20 73 0 80 2 80 20 0 18 -7 20 -80 20
-73 0 -80 -2 -80 -20z"/>
<path d="M8430 4100 c0 -16 8 -19 58 -22 l57 -3 -3 -35 c-2 -19 -10 -46 -17
-61 -17 -33 -86 -95 -116 -104 l-23 -8 23 -18 c23 -18 23 -18 67 11 24 17 56
46 70 66 l27 35 24 -30 c14 -17 44 -43 69 -57 36 -21 47 -24 59 -14 21 17 19
27 -6 35 -29 10 -87 63 -105 96 -7 15 -14 42 -14 59 0 30 0 30 55 30 48 0 55
2 55 20 0 19 -7 20 -140 20 -132 0 -140 -1 -140 -20z"/>
<path d="M9140 4100 c0 -19 7 -20 160 -20 l160 0 0 -50 0 -50 -160 0 -161 0 3
-87 3 -88 78 -3 77 -3 0 -49 0 -50 -115 0 c-108 0 -115 -1 -115 -20 0 -19 7
-20 260 -20 253 0 260 1 260 20 0 19 -7 20 -120 20 l-120 0 0 50 0 50 90 0
c83 0 90 2 90 20 0 19 -8 20 -167 22 l-168 3 -3 48 -3 47 160 0 161 0 0 90 0
90 -185 0 c-178 0 -185 -1 -185 -20z"/>
<path d="M5040 3920 l0 -190 69 0 c37 0 89 3 115 6 39 6 46 10 46 29 0 21 -3
21 -47 14 -27 -4 -67 -8 -90 -8 l-43 -1 0 150 0 150 75 0 c68 0 75 2 75 20 0
19 -7 20 -100 20 l-100 0 0 -190z"/>
<path d="M7780 4090 c0 -19 7 -20 171 -20 l171 0 -7 -77 c-4 -43 -11 -100 -16
-127 -14 -76 -12 -88 14 -84 19 3 24 12 34 73 6 39 15 112 19 163 l7 92 -197
0 c-189 0 -196 -1 -196 -20z"/>
<path d="M5700 4045 l0 -25 160 0 160 0 0 25 0 25 -160 0 -160 0 0 -25z"/>
<path d="M2355 4038 c-11 -6 -41 -10 -66 -9 -40 2 -49 -1 -68 -25 -11 -15 -21
-35 -21 -45 0 -14 -7 -19 -25 -19 -54 0 -85 -69 -47 -103 16 -15 45 -17 199
-17 162 0 182 2 196 18 23 25 21 58 -3 82 -11 11 -20 32 -20 46 0 38 -50 84
-92 84 -18 0 -42 -6 -53 -12z"/>
<path d="M9800 4030 c0 -19 7 -20 155 -20 148 0 155 1 155 20 0 19 -7 20 -155
20 -148 0 -155 -1 -155 -20z"/>
<path d="M5768 3973 c-70 -45 -61 -136 18 -169 137 -57 276 65 178 157 -34 32
-154 39 -196 12z m161 -49 c26 -32 26 -36 3 -64 -27 -33 -99 -39 -134 -10 -56
44 -21 100 61 100 42 0 53 -4 70 -26z"/>
<path d="M9880 3962 c-84 -41 -70 -147 21 -167 24 -5 29 -12 29 -36 l0 -29
-80 0 c-73 0 -80 -2 -80 -20 0 -19 6 -20 133 -19 189 1 241 9 245 35 3 19 0
20 -75 13 -42 -4 -81 -6 -85 -3 -4 3 -8 16 -8 29 0 18 7 25 29 30 61 13 96 76
70 124 -19 34 -74 61 -124 61 -22 0 -56 -8 -75 -18z m140 -42 c43 -43 9 -90
-66 -90 -56 0 -90 27 -80 64 12 47 108 64 146 26z"/>
<path d="M7840 3800 l0 -100 -65 0 c-58 0 -65 -2 -65 -20 0 -19 7 -20 260 -20
253 0 260 1 260 20 0 19 -7 20 -100 20 l-100 0 0 100 0 100 -28 0 -29 0 5
-100 5 -100 -47 0 -46 0 0 100 0 100 -25 0 -25 0 0 -100z"/>
<path d="M1348 3850 c-19 -33 -113 -110 -135 -110 -9 0 -27 -12 -40 -27 -20
-20 -27 -23 -33 -13 -5 8 -7 17 -5 21 3 3 -13 20 -35 38 -38 31 -42 31 -81 20
-46 -14 -79 -50 -79 -86 0 -31 25 -79 47 -92 10 -5 15 -12 11 -16 -10 -11 -65
35 -95 79 -43 65 -75 96 -99 96 -15 0 -41 -22 -80 -66 -60 -68 -80 -83 -129
-95 -28 -6 -27 -7 13 -8 23 -1 59 6 79 14 45 19 49 19 32 -2 -8 -9 -32 -24
-54 -34 l-40 -19 35 0 c20 0 53 9 75 20 48 24 51 25 34 3 -8 -9 -32 -24 -54
-34 l-40 -19 46 0 c26 0 64 6 85 13 56 20 110 29 99 18 -19 -18 -141 -53 -202
-59 -44 -3 -63 -9 -63 -18 0 -10 -14 -14 -46 -14 -69 0 -52 -24 19 -28 l57 -3
0 -38 c0 -35 -3 -38 -36 -47 -53 -13 -37 -29 30 -30 64 -2 66 -3 137 -95 l25
-33 47 18 c102 39 215 184 232 299 l7 42 58 0 c76 0 88 12 69 62 -8 21 -12 53
-9 73 4 31 10 36 50 47 25 7 69 14 97 16 59 2 60 5 22 77 -31 60 -33 61 -51
30z m-145 -166 c8 -8 -71 -74 -89 -74 -10 0 -8 6 6 20 11 11 20 26 20 34 0 18
49 34 63 20z"/>
<path d="M7040 3810 c0 -19 7 -20 115 -20 l115 0 0 -105 0 -105 25 0 25 0 0
105 0 105 120 0 c113 0 120 1 120 20 0 19 -7 20 -260 20 -253 0 -260 -1 -260
-20z"/>
<path d="M8565 3785 c-73 -26 -101 -80 -73 -140 36 -80 255 -98 338 -28 25 20
30 32 30 67 0 49 -31 85 -89 105 -46 15 -157 13 -206 -4z m214 -52 c34 -26 38
-63 11 -88 -27 -24 -150 -33 -205 -15 -71 23 -66 97 8 119 50 16 155 6 186
-16z"/>
<path d="M5780 3675 l0 -75 185 0 c178 0 185 1 185 20 0 19 -7 20 -160 20
l-160 0 0 55 c0 52 -1 55 -25 55 -24 0 -25 -2 -25 -75z"/>
<path d="M2345 3650 c-3 -5 8 -78 24 -162 105 -537 411 -2109 411 -2113 0 -3
14 -5 30 -5 20 0 30 5 30 15 0 11 12 15 48 15 38 0 54 6 82 30 l35 29 -91 1
-91 0 -14 83 -15 82 201 5 c164 4 204 8 223 22 l24 16 -194 996 -193 997 -25
-3 c-27 -3 -31 -24 -18 -100 l7 -38 -198 0 -198 0 -12 70 c-12 63 -15 70 -36
70 -13 0 -27 -4 -30 -10z m490 -212 c18 -80 25 -115 25 -130 0 -17 -16 -18
-194 -18 -177 0 -195 2 -200 18 -6 20 -26 132 -26 144 0 4 88 8 195 8 194 0
195 0 200 -22z m55 -275 c6 -38 14 -76 17 -85 4 -17 -10 -18 -195 -18 l-200 0
-11 68 c-7 37 -14 75 -17 85 -5 16 9 17 194 17 l200 0 12 -67z m35 -185 c18
-80 25 -115 25 -130 0 -17 -16 -18 -195 -18 -220 0 -192 -12 -215 90 -19 87
-34 80 185 80 194 0 195 0 200 -22z m55 -280 c7 -40 14 -76 17 -80 2 -5 -86
-8 -196 -8 l-200 0 -11 58 c-6 31 -13 67 -16 80 l-4 22 199 0 199 0 12 -72z
m35 -180 c17 -75 25 -115 25 -126 0 -10 -43 -12 -197 -10 l-197 3 -13 60 c-21
105 -40 95 182 95 194 0 195 0 200 -22z m56 -285 l16 -83 -198 0 -197 0 -10
48 c-6 26 -14 64 -17 85 l-7 37 198 -2 198 -3 17 -82z m39 -200 c6 -32 13 -70
16 -85 l6 -28 -199 0 -200 0 -14 85 -15 85 197 0 198 0 11 -57z m45 -230 c5
-28 13 -54 16 -58 3 -3 4 -17 1 -30 l-4 -25 -193 0 -193 0 -10 48 c-6 26 -14
64 -17 85 l-7 37 198 -2 199 -3 10 -52z"/>
<path d="M6135 2860 l0 -430 118 0 117 0 0 401 0 401 -29 29 c-28 28 -34 29
-118 29 l-88 0 0 -430z"/>
<path d="M7754 3268 c3 -13 6 -191 6 -395 l0 -373 118 0 117 0 -5 367 c-3 203
-9 375 -13 384 -14 28 -55 39 -144 39 -84 0 -85 0 -79 -22z"/>
<path d="M9358 3135 l3 -155 -135 0 -136 0 0 -98 0 -98 135 4 135 4 0 -326 0
-326 118 0 117 0 -3 537 c-1 351 -6 547 -13 564 -15 38 -48 49 -142 49 l-82 0
3 -155z"/>
<path d="M14220 2746 l0 -544 -32 -11 c-67 -21 -157 -32 -300 -38 l-148 -6 0
49 0 50 73 22 c93 27 163 75 202 137 61 99 31 226 -71 296 -150 103 -433 116
-606 28 -54 -28 -106 -76 -129 -120 -23 -47 -25 -138 -4 -183 35 -72 137 -143
244 -168 l51 -11 0 -55 0 -54 -215 4 -215 3 0 -48 c0 -62 24 -112 58 -125 52
-20 130 -22 537 -13 353 8 420 12 483 28 l72 19 0 -148 0 -148 118 0 117 0 -2
752 c-2 414 -5 763 -8 775 -8 36 -54 53 -145 53 l-80 0 0 -544z m-487 -160
c148 -53 74 -155 -113 -156 -41 0 -92 5 -114 11 -48 13 -88 52 -84 81 4 26 45
57 89 68 55 13 181 10 222 -4z"/>
<path d="M13340 3170 l0 -95 265 0 265 0 0 95 0 95 -265 0 -265 0 0 -95z"/>
<path d="M5810 3110 l0 -150 -55 0 -55 0 0 140 0 140 -120 0 -120 0 0 -115 0
-115 -100 0 -100 0 0 115 0 115 -120 0 -120 0 2 -392 3 -393 338 -3 337 -2 0
155 0 155 55 0 55 0 0 -165 0 -165 115 0 115 0 0 380 c0 476 8 450 -146 450
l-84 0 0 -150z m-350 -380 l0 -80 -100 0 -100 0 0 80 0 80 100 0 100 0 0 -80z"/>
<path d="M6812 3241 c-164 -61 -264 -217 -249 -391 12 -144 83 -252 205 -312
64 -32 72 -33 182 -33 110 0 118 1 182 33 80 39 146 109 179 187 l23 55 54 0
54 0 -4 -140 -3 -140 119 0 c104 0 117 2 112 16 -3 9 -6 168 -6 355 l0 340
-25 24 c-22 23 -32 25 -114 25 l-91 0 7 -135 6 -135 -55 0 -55 0 -32 64 c-37
76 -101 138 -179 174 -78 36 -230 42 -310 13z m214 -201 c70 -44 96 -169 53
-256 -53 -111 -203 -113 -259 -5 -44 87 -17 219 53 261 42 26 110 26 153 0z"/>
<path d="M8570 3117 c0 -96 -5 -162 -15 -202 -39 -148 -149 -280 -299 -356
-47 -24 -86 -47 -86 -50 0 -4 35 -39 79 -78 l78 -70 57 34 c135 81 238 178
286 268 14 26 27 47 30 47 3 0 14 -15 25 -32 49 -84 219 -224 323 -267 31 -13
32 -13 76 35 24 27 55 64 70 81 l28 33 -74 33 c-84 39 -180 109 -222 163 -44
55 -83 142 -95 208 -6 33 -11 113 -11 178 l0 118 -125 0 -125 0 0 -143z"/>
<path d="M9950 3070 l0 -100 485 0 486 0 -6 -57 c-3 -32 -12 -128 -21 -213
-13 -132 -33 -283 -60 -443 l-7 -38 119 3 119 3 17 95 c30 176 57 425 83 768
l6 82 -610 0 -611 0 0 -100z"/>
<path d="M11570 3070 l0 -100 485 0 486 0 -6 -57 c-3 -32 -12 -128 -21 -213
-13 -132 -33 -283 -60 -443 l-7 -38 119 3 119 3 17 95 c30 176 57 425 83 768
l6 82 -610 0 -611 0 0 -100z"/>
<path d="M13100 2925 l0 -95 500 0 500 0 0 95 0 95 -500 0 -500 0 0 -95z"/>
<path d="M10110 2340 l0 -280 -161 0 -162 0 7 -70 c7 -79 19 -105 56 -120 16
-6 287 -11 758 -12 l732 -3 0 53 c0 69 -21 119 -57 133 -17 7 -123 14 -266 17
l-238 5 3 278 3 279 -122 0 -123 0 0 -280 0 -280 -96 0 -96 0 4 280 3 280
-122 0 -123 0 0 -280z"/>
<path d="M11730 2340 l0 -280 -161 0 -162 0 7 -70 c7 -79 19 -105 56 -120 16
-6 287 -11 758 -12 l732 -3 0 53 c0 69 -21 119 -57 133 -17 7 -123 14 -266 17
l-238 5 3 278 3 279 -122 0 -123 0 0 -280 0 -280 -96 0 -96 0 4 280 3 280
-122 0 -123 0 0 -280z"/>
<path d="M2368 2424 l-58 -53 0 -270 0 -270 55 -6 c31 -4 58 -5 61 -3 2 3 3
151 2 330 l-3 326 -57 -54z"/>
<path d="M6830 2330 l0 -90 461 0 460 0 -3 -42 -3 -43 -457 -3 -458 -2 0 -220
0 -220 600 0 601 0 -3 90 -3 91 -477 -1 -478 0 0 45 0 45 460 0 460 0 0 220 0
220 -580 0 -580 0 0 -90z"/>
<path d="M5202 2018 l3 -303 603 -3 602 -2 0 102 0 103 -485 -3 -485 -3 0 105
0 106 465 0 465 0 0 100 0 100 -585 0 -585 0 2 -302z"/>
<path d="M2483 2050 l2 -235 48 -3 47 -3 0 183 0 183 -50 55 -49 55 2 -235z"/>
<path d="M8474 2243 c3 -21 6 -145 6 -275 l0 -238 575 0 575 0 0 100 0 100
-460 0 -461 0 3 175 3 175 -124 0 -124 0 7 -37z"/>
<path d="M3409 2216 c-13 -6 -30 -24 -37 -39 -11 -23 -11 -32 4 -62 9 -20 14
-38 11 -41 -10 -11 -87 17 -118 43 -30 26 -32 26 -45 8 -8 -10 -14 -26 -14
-35 0 -42 67 -90 125 -90 14 0 25 -3 25 -6 0 -3 -14 -59 -30 -126 -17 -66 -29
-125 -28 -130 2 -5 52 32 110 84 112 98 111 95 92 161 -4 14 1 17 30 17 45 0
79 13 105 41 23 25 26 50 10 81 l-11 20 -19 -21 c-38 -41 -139 -68 -139 -37 0
7 7 19 15 26 17 14 20 53 5 80 -14 27 -62 41 -91 26z"/>
<path d="M2208 2199 l-38 -19 0 -181 0 -181 31 6 c17 3 38 6 45 6 11 0 14 36
14 195 0 107 -3 195 -7 195 -5 -1 -25 -10 -45 -21z"/>
<path d="M2215 1771 l-40 -6 0 -85 c0 -47 4 -94 8 -104 8 -19 8 -19 22 1 35
50 201 92 369 93 97 0 98 0 92 23 -3 12 -6 29 -6 38 0 14 -21 18 -122 27 -182
16 -278 20 -323 13z"/>
<path d="M2495 1619 c-130 -17 -232 -60 -264 -111 -11 -18 -9 -24 14 -48 15
-15 50 -40 78 -56 51 -28 57 -29 231 -32 170 -4 178 -3 173 14 -3 11 -10 45
-16 77 -6 31 -16 82 -22 112 l-10 55 -57 -1 c-31 -1 -88 -6 -127 -10z"/>
</g>
</svg>
